<svg id="Layer_1" data-name="Layer 1" xmlns="http://www.w3.org/2000/svg" width="234.64" height="234.64" viewBox="0 0 234.64 234.64">
  <title>arrow</title>
  <path d="M234.64,117.32A117.32,117.32,0,1,1,117.32,0,117.33,117.33,0,0,1,234.64,117.32M134,117.61q-16.74,16.88-34,34.15c-10.25,10.25,4.82,25.33,15.34,14.79q21.35-21.41,41.19-41.21a10.83,10.83,0,0,0,2.8-11.37,16.55,16.55,0,0,0-4-5.65Q135.18,88.27,115.5,68.54a14.58,14.58,0,0,0-4-2.89c-8.41-4.06-17.71,4.65-14.4,13.26a18.35,18.35,0,0,0,4.3,5.75Q118.26,101.27,134,117a.41.41,0,0,1,0,.58Z"/>
</svg>
