<svg id="supermarket" xmlns="http://www.w3.org/2000/svg" width="19.342" height="17" viewBox="0 0 19.342 17">
  <path id="Path_578" data-name="Path 578" d="M6.232,10.833H16.509a.564.564,0,0,0,.545-.393L19.32,2.857a.523.523,0,0,0-.092-.475.576.576,0,0,0-.452-.216H4.925L4.52.424A.562.562,0,0,0,3.967,0H.567A.555.555,0,0,0,0,.542a.555.555,0,0,0,.567.542H3.512l2.046,8.8a1.627,1.627,0,0,0-1.025,1.491A1.666,1.666,0,0,0,6.233,13H16.509a.542.542,0,1,0,0-1.083H6.233a.542.542,0,1,1,0-1.083ZM18.024,3.25l-1.943,6.5H6.688L5.177,3.25Zm0,0" fill="#fff"/>
  <path id="Path_579" data-name="Path 579" d="M150,362a2,2,0,1,0,2-2A2,2,0,0,0,150,362Zm2-.667a.667.667,0,1,1-.667.667A.668.668,0,0,1,152,361.333Zm0,0" transform="translate(-144.547 -347)" fill="#fff"/>
  <path id="Path_580" data-name="Path 580" d="M362,362a2,2,0,1,0,2-2A2,2,0,0,0,362,362Zm2-.667a.667.667,0,1,1-.667.667A.668.668,0,0,1,364,361.333Zm0,0" transform="translate(-349.324 -347)" fill="#fff"/>
</svg>
