<svg id="supermarket" xmlns="http://www.w3.org/2000/svg" width="22.755" height="20" viewBox="0 0 22.755 20">
  <path id="Path_578" data-name="Path 578" d="M7.332,13.333H19.422a.667.667,0,0,0,.641-.484L22.73,3.516a.667.667,0,0,0-.641-.85H5.794L5.318.522A.667.667,0,0,0,4.667,0h-4a.667.667,0,0,0,0,1.333H4.132L6.539,12.165A2,2,0,0,0,7.333,16H19.422a.667.667,0,0,0,0-1.333H7.333a.667.667,0,0,1,0-1.333ZM21.205,4l-2.286,8H7.868L6.09,4Zm0,0" fill="#fff"/>
  <path id="Path_579" data-name="Path 579" d="M150,362a2,2,0,1,0,2-2A2,2,0,0,0,150,362Zm2-.667a.667.667,0,1,1-.667.667A.668.668,0,0,1,152,361.333Zm0,0" transform="translate(-143.333 -344)" fill="#fff"/>
  <path id="Path_580" data-name="Path 580" d="M362,362a2,2,0,1,0,2-2A2,2,0,0,0,362,362Zm2-.667a.667.667,0,1,1-.667.667A.668.668,0,0,1,364,361.333Zm0,0" transform="translate(-345.911 -344)" fill="#fff"/>
</svg>
