<?xml version="1.0" encoding="UTF-8" standalone="no"?>
<svg
   xmlns:dc="http://purl.org/dc/elements/1.1/"
   xmlns:cc="http://creativecommons.org/ns#"
   xmlns:rdf="http://www.w3.org/1999/02/22-rdf-syntax-ns#"
   xmlns:svg="http://www.w3.org/2000/svg"
   xmlns="http://www.w3.org/2000/svg"
   xmlns:sodipodi="http://sodipodi.sourceforge.net/DTD/sodipodi-0.dtd"
   xmlns:inkscape="http://www.inkscape.org/namespaces/inkscape"
   id="Klarna_Logo_black"
   width="87.437"
   height="19.518"
   viewBox="0 0 87.437 19.518"
   version="1.1"
   sodipodi:docname="Klarna_Logo_black.svg"
   inkscape:version="1.0.2 (e86c870879, 2021-01-15, custom)">
  <metadata
     id="metadata1519">
    <rdf:RDF>
      <cc:Work
         rdf:about="">
        <dc:format>image/svg+xml</dc:format>
        <dc:type
           rdf:resource="http://purl.org/dc/dcmitype/StillImage" />
      </cc:Work>
    </rdf:RDF>
  </metadata>
  <defs
     id="defs1517" />
  <sodipodi:namedview
     pagecolor="#ffffff"
     bordercolor="#666666"
     borderopacity="1"
     objecttolerance="10"
     gridtolerance="10"
     guidetolerance="10"
     inkscape:pageopacity="0"
     inkscape:pageshadow="2"
     inkscape:window-width="1886"
     inkscape:window-height="1368"
     id="namedview1515"
     showgrid="false"
     inkscape:zoom="11.917152"
     inkscape:cx="41.87242"
     inkscape:cy="9.7589998"
     inkscape:window-x="1073"
     inkscape:window-y="372"
     inkscape:window-maximized="0"
     inkscape:current-layer="Klarna_Logo_black" />
  <path
     id="Path_518"
     data-name="Path 518"
     d="M36.045,0H31.739A11.019,11.019,0,0,1,27.3,8.881l-1.7,1.274,6.6,9h5.425l-6.081-8.282A15.221,15.221,0,0,0,36.045,0Z"
     transform="translate(-20.658)"
     fill="#8f8780"
     style="fill:#7cc6d1;fill-opacity:1" />
  <rect
     id="Rectangle_1263"
     data-name="Rectangle 1263"
     width="4.402"
     height="19.151"
     fill="#8f8780"
     style="fill:#7cc6d1;fill-opacity:1" />
  <rect
     id="Rectangle_1264"
     data-name="Rectangle 1264"
     width="4.151"
     height="19.151"
     transform="translate(18.244)"
     fill="#8f8780"
     style="fill:#7cc6d1;fill-opacity:1" />
  <path
     id="Path_519"
     data-name="Path 519"
     d="M271.031,28.7a4.8,4.8,0,0,0-4.093,1.853V29.067H263V42.311h4v-6.95a2.789,2.789,0,0,1,2.973-2.992c1.738,0,2.741,1.043,2.741,2.973V42.33h3.958V33.893C276.669,30.8,274.217,28.7,271.031,28.7Z"
     transform="translate(-212.225 -23.159)"
     fill="#8f8780"
     style="fill:#7cc6d1;fill-opacity:1" />
  <path
     id="Path_520"
     data-name="Path 520"
     d="M135.327,29.067v.849a6.894,6.894,0,0,0-3.938-1.216,6.989,6.989,0,1,0,0,13.978,6.894,6.894,0,0,0,3.938-1.216v.849h3.958V29.067Zm-3.61,10.02a3.4,3.4,0,1,1,3.591-3.4A3.5,3.5,0,0,1,131.717,39.087Z"
     transform="translate(-100.383 -23.159)"
     fill="#8f8780"
     style="fill:#7cc6d1;fill-opacity:1" />
  <path
     id="Path_521"
     data-name="Path 521"
     d="M216.354,32.318V30.6H212.3V43.844h4.074V37.666c0-2.085,2.259-3.2,3.823-3.2h.039V30.6A4.973,4.973,0,0,0,216.354,32.318Z"
     transform="translate(-171.313 -24.692)"
     fill="#8f8780"
     style="fill:#7cc6d1;fill-opacity:1" />
  <path
     id="Path_522"
     data-name="Path 522"
     d="M351.927,29.067v.849a6.894,6.894,0,0,0-3.938-1.216,6.989,6.989,0,0,0,0,13.978,6.894,6.894,0,0,0,3.938-1.216v.849h3.958V29.067Zm-3.61,10.02a3.4,3.4,0,1,1,3.591-3.4A3.5,3.5,0,0,1,348.317,39.087Z"
     transform="translate(-275.167 -23.159)"
     fill="#8f8780"
     style="fill:#7cc6d1;fill-opacity:1" />
  <g
     id="Group_1003"
     data-name="Group 1003"
     transform="translate(82.436 5.56)"
     style="fill:#7cc6d1;fill-opacity:1">
    <path
       id="Path_523"
       data-name="Path 523"
       d="M431.014,31.309a.306.306,0,0,0-.348-.309H430.3v1h.174v-.367h.193l.154.367h.193l-.174-.405A.3.3,0,0,0,431.014,31.309Zm-.348.154h-.193v-.309h.193c.116,0,.174.058.174.154S430.8,31.463,430.667,31.463Z"
       transform="translate(-429.663 -30.575)"
       fill="#8f8780"
       style="fill:#7cc6d1;fill-opacity:1" />
    <path
       id="Path_524"
       data-name="Path 524"
       d="M427.946,28.8a.948.948,0,0,0-.946.946.96.96,0,0,0,.946.946.946.946,0,1,0,0-1.892Zm0,1.718a.758.758,0,0,1-.753-.772.771.771,0,0,1,.753-.772.758.758,0,0,1,.753.772A.771.771,0,0,1,427.946,30.518Z"
       transform="translate(-427 -28.8)"
       fill="#8f8780"
       style="fill:#7cc6d1;fill-opacity:1" />
  </g>
  <path
     id="Path_525"
     data-name="Path 525"
     d="M429.59,74.9a2.49,2.49,0,1,0,2.49,2.49A2.5,2.5,0,0,0,429.59,74.9Z"
     transform="translate(-344.644 -60.44)"
     fill="#8f8780"
     style="fill:#7cc6d1;fill-opacity:1" />
</svg>
