<?xml version="1.0" encoding="UTF-8" standalone="no"?>
<svg
   xmlns:dc="http://purl.org/dc/elements/1.1/"
   xmlns:cc="http://creativecommons.org/ns#"
   xmlns:rdf="http://www.w3.org/1999/02/22-rdf-syntax-ns#"
   xmlns:svg="http://www.w3.org/2000/svg"
   xmlns="http://www.w3.org/2000/svg"
   xmlns:sodipodi="http://sodipodi.sourceforge.net/DTD/sodipodi-0.dtd"
   xmlns:inkscape="http://www.inkscape.org/namespaces/inkscape"
   width="180"
   height="83.068"
   viewBox="0 0 180 83.068"
   version="1.1"
   id="svg865"
   sodipodi:docname="lay-z-spa-logo.svg"
   inkscape:version="1.0.2 (e86c870879, 2021-01-15, custom)">
  <metadata
     id="metadata871">
    <rdf:RDF>
      <cc:Work
         rdf:about="">
        <dc:format>image/svg+xml</dc:format>
        <dc:type
           rdf:resource="http://purl.org/dc/dcmitype/StillImage" />
        <dc:title></dc:title>
      </cc:Work>
    </rdf:RDF>
  </metadata>
  <defs
     id="defs869" />
  <sodipodi:namedview
     pagecolor="#ffffff"
     bordercolor="#666666"
     borderopacity="1"
     objecttolerance="10"
     gridtolerance="10"
     guidetolerance="10"
     inkscape:pageopacity="0"
     inkscape:pageshadow="2"
     inkscape:window-width="1718"
     inkscape:window-height="1368"
     id="namedview867"
     showgrid="false"
     showguides="false"
     inkscape:zoom="2.7555556"
     inkscape:cx="89.022017"
     inkscape:cy="38.759795"
     inkscape:window-x="2793"
     inkscape:window-y="372"
     inkscape:window-maximized="0"
     inkscape:current-layer="LZS_new_logo" />
  <g
     id="LZS_new_logo"
     data-name="LZS new logo"
     transform="translate(-27.01 -119.68)">
    <path
       id="Path_2"
       data-name="Path 2"
       d="M111.028,245.6H108.97v21.458h11.677v-1.981h-9.619Z"
       transform="translate(-63.221 -96.505)"
       fill="#8f8780"
       style="fill:#000000" />
    <path
       id="Path_3"
       data-name="Path 3"
       d="m 189.814,257.409 h -7.474 l 3.20939,-8.227 0.55161,-1.414 z m -4.15,-13.979 -8.544,21.97 h 2.142 l 2.309,-6 h 9 l 2.339,6 h 2.17 l -8.54,-21.97 z"
       transform="translate(-115.789,-94.842)"
       fill="#8f8780"
       sodipodi:nodetypes="cccccccccccccc"
       style="fill:#000000" />
    <path
       id="Path_4"
       data-name="Path 4"
       d="M268.287,245.6,262.2,256.182,256.15,245.6H253.8l7.376,12.885v8.573h2.056v-8.573l7.374-12.885Z"
       transform="translate(-174.936 -96.505)"
       fill="#8f8780"
       style="fill:#000000" />
    <path
       id="Path_5"
       data-name="Path 5"
       d="M398.234,246.576l.091-.142V245.6h-13.78v1.981h10.691l-11.885,18.5-.091.143v.834h15.474v-1.981H386.349Z"
       transform="translate(-274.797 -96.505)"
       fill="#8f8780"
       style="fill:#000000" />
    <path
       id="Path_6"
       data-name="Path 6"
       d="M517.756,254.466l-1.783-.9c-2.6-1.3-3.517-2.086-3.517-3.936a3.1,3.1,0,0,1,3.329-3.072,4.227,4.227,0,0,1,4.029,2.18l.288.472,1.669-1-.3-.5a6.034,6.034,0,0,0-5.679-3.137,5.04,5.04,0,0,0-5.355,5.053c0,2.859,1.7,4.272,4.644,5.742l1.815.9c2.984,1.462,3.892,2.535,3.892,4.593,0,2.28-1.66,3.639-4.44,3.639a5.774,5.774,0,0,1-5.263-3.249l-.268-.516-1.772,1,.258.5a7.623,7.623,0,0,0,7.044,4.277c3.928,0,6.466-2.217,6.466-5.651,0-2.817-1.372-4.55-5.053-6.4"
       transform="translate(-371.818 -95.723)"
       fill="#8f8780"
       style="fill:#000000" />
    <path
       id="Path_7"
       data-name="Path 7"
       d="M598.955,247.581h3.855c2.945,0,4.7,1.616,4.7,4.326,0,2.691-1.758,4.3-4.7,4.3h-3.855Zm3.971-1.981H596.9v21.458h2.055v-8.872h3.971c4.9,0,6.642-3.383,6.642-6.279a6.3,6.3,0,0,0-1.692-4.448,6.707,6.707,0,0,0-4.95-1.859"
       transform="translate(-439.59 -96.505)"
       fill="#8f8780"
       style="fill:#000000" />
    <path
       id="Path_8"
       data-name="Path 8"
       d="M667.284,257.409H659.81l3.761-9.641Zm-3.272-13.979h-.878L654.59,265.4h2.143l2.309-6h9l2.339,6h2.17Z"
       transform="translate(-484.089 -94.842)"
       fill="#8f8780"
       style="fill:#000000" />
    <rect
       id="Rectangle_1"
       data-name="Rectangle 1"
       width="7.365"
       height="1.857"
       transform="translate(96.691 159.371)"
       fill="#8f8780"
       style="fill:#000000" />
    <rect
       id="Rectangle_2"
       data-name="Rectangle 2"
       width="7.365"
       height="1.857"
       transform="translate(126.167 159.371)"
       fill="#8f8780"
       style="fill:#000000" />
    <path
       id="Path_9"
       data-name="Path 9"
       d="M738.48,327.968c.178,0,.277-.075.277-.231s-.1-.231-.277-.231h-.194v.465h.194Zm-.194.755h-.3v-1.476h.512c.357,0,.567.2.567.491a.427.427,0,0,1-.284.423l.325.563h-.325l-.293-.514h-.2v.514Zm1.241-.722a1.048,1.048,0,1,0-2.094,0,1.047,1.047,0,1,0,2.094,0m-2.337,0a1.291,1.291,0,1,1,1.283,1.294A1.271,1.271,0,0,1,737.19,328"
       transform="translate(-547.804 -158.66)"
       fill="#8f8780"
       style="fill:#000000" />
    <path
       id="Path_10"
       data-name="Path 10"
       d="M117.01,121.743c-23.632,0-45.833,4.181-62.515,11.773-16.421,7.475-25.466,17.312-25.466,27.7s9.045,20.225,25.466,27.7c16.682,7.592,38.883,11.773,62.515,11.773s45.833-4.181,62.515-11.773c16.421-7.475,25.466-17.312,25.466-27.7s-9.045-20.225-25.466-27.7c-16.682-7.592-38.883-11.773-62.515-11.773m0,81.005c-23.909,0-46.4-4.245-63.336-11.953C36.48,182.969,27.01,172.464,27.01,161.214s9.468-21.755,26.664-29.581C70.61,123.927,93.1,119.68,117.01,119.68s46.4,4.244,63.336,11.953c17.194,7.826,26.664,18.331,26.664,29.581s-9.468,21.757-26.664,29.581c-16.933,7.709-39.427,11.953-63.336,11.953"
       transform="translate(0 0)"
       fill="#8f8780"
       style="fill:#000000" />
  </g>
</svg>
