<?xml version="1.0" encoding="UTF-8" standalone="no"?>
<!-- Generator: Adobe Illustrator 19.2.1, SVG Export Plug-In . SVG Version: 6.00 Build 0)  -->

<svg
   xmlns:dc="http://purl.org/dc/elements/1.1/"
   xmlns:cc="http://creativecommons.org/ns#"
   xmlns:rdf="http://www.w3.org/1999/02/22-rdf-syntax-ns#"
   xmlns:svg="http://www.w3.org/2000/svg"
   xmlns="http://www.w3.org/2000/svg"
   xmlns:sodipodi="http://sodipodi.sourceforge.net/DTD/sodipodi-0.dtd"
   xmlns:inkscape="http://www.inkscape.org/namespaces/inkscape"
   version="1.1"
   id="layer"
   x="0px"
   y="0px"
   viewBox="0 0 650 200"
   xml:space="preserve"
   sodipodi:docname="trustpilot-vector-logo.svg"
   width="650"
   height="200"
   inkscape:version="0.92.4 (5da689c313, 2019-01-14)"><metadata
   id="metadata15"><rdf:RDF><cc:Work
       rdf:about=""><dc:format>image/svg+xml</dc:format><dc:type
         rdf:resource="http://purl.org/dc/dcmitype/StillImage" /><dc:title></dc:title></cc:Work></rdf:RDF></metadata><defs
   id="defs13" /><sodipodi:namedview
   pagecolor="#ffffff"
   bordercolor="#666666"
   borderopacity="1"
   objecttolerance="10"
   gridtolerance="10"
   guidetolerance="10"
   inkscape:pageopacity="0"
   inkscape:pageshadow="2"
   inkscape:window-width="1718"
   inkscape:window-height="1368"
   id="namedview11"
   showgrid="false"
   inkscape:zoom="1.4478528"
   inkscape:cx="483.17299"
   inkscape:cy="243.88392"
   inkscape:window-x="-7"
   inkscape:window-y="0"
   inkscape:window-maximized="0"
   inkscape:current-layer="layer" />
<style
   type="text/css"
   id="style2">
	.st0{fill:#00B67A;}
	.st1{fill:#005128;}
</style>
<path
   d="m 179.58135,80.767797 h 60.7 v 11.299996 h -23.9 v 63.699997 h -13.1 V 92.067793 h -23.8 z m 58.1,20.699993 h 11.2 v 10.5 h 0.2 c 0.4,-1.5 1.1,-2.9 2.1,-4.3 1,-1.4 2.2,-2.7 3.7,-3.8 1.4,-1.2 3,-2.1 4.8,-2.8 1.7,-0.7 3.5,-1.099997 5.3,-1.099997 1.4,0 2.4,0.1 2.9,0.1 0.5,0.1 1.1,0.2 1.6,0.2 v 11.5 c -0.8,-0.2 -1.7,-0.3 -2.6,-0.4 -0.9,-0.1 -1.7,-0.2 -2.6,-0.2 -2,0 -3.9,0.4 -5.7,1.2 -1.8,0.8 -3.3,2 -4.7,3.5 -1.3,1.6 -2.4,3.5 -3.2,5.8 -0.8,2.3 -1.2,5 -1.2,8 v 25.8 h -12 z m 86.8,54.3 h -11.8 v -7.6 h -0.2 c -1.5,2.8 -3.7,4.9 -6.6,6.6 -2.9,1.7 -5.9,2.5 -8.9,2.5 -7.1,0 -12.3,-1.7 -15.5,-5.3 -3.2,-3.5 -4.8,-8.9 -4.8,-16 v -34.5 h 12 v 33.3 c 0,4.8 0.9,8.2 2.8,10.1 1.8,2 4.4,3 7.7,3 2.5,0 4.6,-0.4 6.3,-1.2 1.7,-0.8 3.1,-1.8 4.1,-3.1 1.1,-1.3 1.8,-2.9 2.3,-4.7 0.5,-1.8 0.7,-3.8 0.7,-5.9 v -31.5 h 12 v 54.3 z m 20.4,-17.4 c 0.4,3.5 1.7,5.9 4,7.4 2.3,1.4 5.1,2.1 8.3,2.1 1.1,0 2.4,-0.1 3.8,-0.3 1.4,-0.2 2.8,-0.5 4,-1 1.3,-0.5 2.3,-1.2 3.1,-2.2 0.8,-1 1.2,-2.2 1.1,-3.7 -0.1,-1.5 -0.6,-2.8 -1.7,-3.8 -1.1,-1 -2.4,-1.7 -4,-2.4 -1.6,-0.6 -3.5,-1.1 -5.6,-1.5 -2.1,-0.4 -4.2,-0.9 -6.4,-1.4 -2.2,-0.5 -4.4,-1.1 -6.5,-1.8 -2.1,-0.7 -3.9,-1.6 -5.6,-2.9 -1.6,-1.2 -3,-2.7 -3.9,-4.6 -1,-1.9 -1.5,-4.1 -1.5,-6.9 0,-3 0.7,-5.4 2.2,-7.4 1.4,-2 3.3,-3.6 5.5,-4.8 2.2,-1.2 4.7,-2.1 7.4,-2.6 2.7,-0.5 5.3,-0.699997 7.7,-0.699997 2.8,0 5.5,0.299997 8,0.899997 2.5,0.6 4.9,1.5 6.9,2.9 2.1,1.3 3.8,3.1 5.1,5.2 1.4,2.1 2.2,4.7 2.6,7.7 h -12.5 c -0.6,-2.9 -1.9,-4.8 -3.9,-5.8 -2.1,-1 -4.4,-1.5 -7.1,-1.5 -0.8,0 -1.9,0.1 -3,0.2 -1.2,0.2 -2.2,0.4 -3.3,0.8 -1,0.4 -1.9,1 -2.6,1.7 -0.7,0.7 -1.1,1.7 -1.1,2.9 0,1.5 0.5,2.6 1.5,3.5 1,0.9 2.3,1.6 4,2.3 1.6,0.6 3.5,1.1 5.6,1.5 2.1,0.4 4.3,0.9 6.5,1.4 2.2,0.5 4.3,1.1 6.4,1.8 2.1,0.7 4,1.6 5.6,2.9 1.6,1.2 3,2.7 4,4.5 1,1.8 1.5,4.1 1.5,6.7 0,3.2 -0.7,5.9 -2.2,8.2 -1.5,2.2 -3.4,4.1 -5.7,5.5 -2.3,1.4 -5,2.4 -7.8,3.1 -2.9,0.6 -5.7,1 -8.5,1 -3.4,0 -6.6,-0.4 -9.5,-1.2 -2.9,-0.8 -5.5,-2 -7.6,-3.5 -2.1,-1.6 -3.8,-3.5 -5,-5.9 -1.2,-2.3 -1.9,-5.1 -2,-8.4 h 12.1 v 0.1 z m 39.5,-36.9 h 9.1 V 85.067793 h 12 v 16.299997 h 10.8 v 8.9 h -10.8 v 29 c 0,1.3 0.1,2.3 0.2,3.3 0.1,0.9 0.4,1.7 0.7,2.3 0.4,0.6 1,1.1 1.7,1.4 0.8,0.3 1.8,0.5 3.2,0.5 0.8,0 1.7,0 2.5,-0.1 0.8,-0.1 1.7,-0.2 2.5,-0.4 v 9.3 c -1.3,0.2 -2.6,0.3 -3.9,0.4 -1.3,0.2 -2.5,0.2 -3.9,0.2 -3.2,0 -5.7,-0.3 -7.6,-0.9 -1.9,-0.6 -3.4,-1.5 -4.5,-2.6 -1.1,-1.2 -1.8,-2.6 -2.2,-4.3 -0.4,-1.7 -0.6,-3.8 -0.7,-6 v -32 h -9.1 v -9.1 0 z m 40.3,0 h 11.3 v 7.4 h 0.2 c 1.7,-3.2 4,-5.4 7,-6.8 3,-1.4 6.2,-2.099997 9.8,-2.099997 4.3,0 8,0.699997 11.2,2.299997 3.2,1.5 5.8,3.5 7.9,6.2 2.1,2.6 3.7,5.7 4.7,9.2 1,3.5 1.6,7.3 1.6,11.2 0,3.7 -0.5,7.2 -1.4,10.6 -1,3.4 -2.4,6.5 -4.3,9.1 -1.9,2.6 -4.3,4.7 -7.3,6.3 -3,1.6 -6.4,2.4 -10.4,2.4 -1.7,0 -3.5,-0.2 -5.2,-0.5 -1.7,-0.3 -3.4,-0.8 -5,-1.5 -1.6,-0.7 -3.1,-1.6 -4.4,-2.7 -1.4,-1.1 -2.5,-2.4 -3.4,-3.8 h -0.2 v 27.1 h -12 v -74.4 z m 41.9,27.2 c 0,-2.4 -0.3,-4.8 -1,-7.1 -0.6,-2.3 -1.6,-4.3 -2.9,-6.1 -1.3,-1.8 -2.9,-3.2 -4.7,-4.3 -1.9,-1.1 -4.1,-1.6 -6.5,-1.6 -5,0 -8.8,1.7 -11.4,5.2 -2.5,3.5 -3.8,8.2 -3.8,14 0,2.8 0.3,5.3 1,7.6 0.7,2.3 1.6,4.3 3,6 1.3,1.7 2.9,3 4.8,4 1.9,1 4,1.5 6.5,1.5 2.8,0 5,-0.6 6.9,-1.7 1.9,-1.1 3.4,-2.6 4.7,-4.3 1.2,-1.8 2.1,-3.8 2.6,-6.1 0.5,-2.4 0.8,-4.7 0.8,-7.1 z m 21.1,-47.899993 h 12 v 11.299996 h -12 c 0,0 0,-11.299996 0,-11.299996 z m 0,20.699993 h 12 v 54.3 h -12 z m 22.7,-20.699993 h 12 v 74.999993 h -12 z m 48.6,76.499993 c -4.3,0 -8.2,-0.7 -11.6,-2.2 -3.4,-1.5 -6.2,-3.4 -8.6,-5.9 -2.3,-2.5 -4.1,-5.6 -5.3,-9.1 -1.2,-3.5 -1.9,-7.4 -1.9,-11.5 0,-4.1 0.6,-7.9 1.9,-11.4 1.2,-3.5 3,-6.5 5.3,-9.1 2.3,-2.5 5.2,-4.5 8.6,-5.9 3.4,-1.4 7.3,-2.199997 11.6,-2.199997 4.3,0 8.2,0.699997 11.6,2.199997 3.4,1.4 6.2,3.4 8.6,5.9 2.3,2.5 4.1,5.6 5.3,9.1 1.2,3.5 1.9,7.3 1.9,11.4 0,4.2 -0.6,8 -1.9,11.5 -1.3,3.5 -3,6.5 -5.3,9.1 -2.3,2.5 -5.2,4.5 -8.6,5.9 -3.4,1.4 -7.2,2.2 -11.6,2.2 z m 0,-9.5 c 2.6,0 5,-0.6 6.9,-1.7 2,-1.1 3.5,-2.6 4.8,-4.4 1.3,-1.8 2.2,-3.9 2.8,-6.1 0.6,-2.3 0.9,-4.6 0.9,-7 0,-2.3 -0.3,-4.6 -0.9,-6.9 -0.6,-2.3 -1.5,-4.3 -2.8,-6.1 -1.3,-1.8 -2.9,-3.2 -4.8,-4.3 -2,-1.1 -4.3,-1.7 -6.9,-1.7 -2.6,0 -5,0.6 -6.9,1.7 -2,1.1 -3.5,2.6 -4.8,4.3 -1.3,1.8 -2.2,3.8 -2.8,6.1 -0.6,2.3 -0.9,4.6 -0.9,6.9 0,2.4 0.3,4.7 0.9,7 0.6,2.3 1.5,4.3 2.8,6.1 1.3,1.8 2.9,3.3 4.8,4.4 2,1.2 4.3,1.7 6.9,1.7 z m 31,-46.3 h 9.1 V 85.067793 h 12 v 16.299997 h 10.8 v 8.9 h -10.8 v 29 c 0,1.3 0.1,2.3 0.2,3.3 0.1,0.9 0.4,1.7 0.7,2.3 0.4,0.6 1,1.1 1.7,1.4 0.8,0.3 1.8,0.5 3.2,0.5 0.8,0 1.7,0 2.5,-0.1 0.8,-0.1 1.7,-0.2 2.5,-0.4 v 9.3 c -1.3,0.2 -2.6,0.3 -3.9,0.4 -1.3,0.2 -2.5,0.2 -3.9,0.2 -3.2,0 -5.7,-0.3 -7.6,-0.9 -1.9,-0.6 -3.4,-1.5 -4.5,-2.6 -1.1,-1.2 -1.8,-2.6 -2.2,-4.3 -0.4,-1.7 -0.6,-3.8 -0.7,-6 v -32 h -9.1 v -9.1 0 z"
   id="path4"
   inkscape:connector-curvature="0" />
<path
   class="st0"
   d="m 165.58135,80.767797 h -54.9 l -16.899994,-52.2 -17,52.2 -54.9,-0.1 44.4,32.299993 -17,52.2 44.4,-32.3 44.399994,32.3 -16.9,-52.2 z"
   id="path6"
   inkscape:connector-curvature="0"
   style="fill:#00b67a" />
<path
   class="st1"
   d="m 124.98135,124.76779 -3.8,-11.8 -27.399994,19.9 z"
   id="path8"
   inkscape:connector-curvature="0"
   style="fill:#005128" />
</svg>