<svg xmlns="http://www.w3.org/2000/svg" width="43.71" height="50" viewBox="0 0 43.71 50">
  <g id="support" transform="translate(-26.48)">
    <g id="Group_1227" data-name="Group 1227" transform="translate(26.48)">
      <path id="Path_586" data-name="Path 586" d="M65.439,17.1a17.1,17.1,0,0,0-34.208,0c-2.442.3-4.751,1.9-4.751,5.606v8.932c0,4.181,2.927,5.7,5.7,5.7h2.756a.95.95,0,0,0,.95-.95V18a.95.95,0,0,0-.95-.95H33.131a15.2,15.2,0,0,1,30.407,0H61.733a.95.95,0,0,0-.95.95V36.364a.95.95,0,0,0,.95.95h1.805c-.266,6.528-3.4,8.058-9.664,8.333v-.637a1.9,1.9,0,0,0-1.9-1.9H46a1.9,1.9,0,0,0-1.9,1.9V48.1A1.9,1.9,0,0,0,46,50h6a1.9,1.9,0,0,0,1.9-1.9v-.551c6.024-.276,11.231-1.52,11.545-10.291,2.442-.3,4.751-1.9,4.751-5.606V22.719C70.19,18.995,67.89,17.408,65.439,17.1ZM33.987,18.881V35.414H32.134c-1.406,0-3.8-.494-3.8-3.8V22.681c0-3.278,2.366-3.8,3.8-3.8ZM51.993,46.665v1.444H46V45.021h6Zm16.3-15.023c0,3.278-2.366,3.8-3.8,3.8H62.683v-16.5h1.853c1.406,0,3.8.494,3.8,3.8Z" transform="translate(-26.48)" fill="#7cc6d1"/>
    </g>
  </g>
</svg>
