<svg id="Layer_1" data-name="Layer 1" xmlns="http://www.w3.org/2000/svg" xmlns:xlink="http://www.w3.org/1999/xlink" viewBox="0 0 47.94 49.2"><defs><style>.cls-1{stroke-miterlimit:10;stroke-width:0.13px;fill:url(#Sfumatura_senza_nome_19);stroke:url(#Sfumatura_senza_nome_19-2);}</style><linearGradient id="Sfumatura_senza_nome_19" x1="0.08" y1="24.6" x2="47.87" y2="24.6" gradientUnits="userSpaceOnUse"><stop offset="0" stop-color="#87cdd7"/><stop offset="1" stop-color="#1d71b8"/></linearGradient><linearGradient id="Sfumatura_senza_nome_19-2" x1="0" y1="24.6" x2="47.94" y2="24.6" xlink:href="#Sfumatura_senza_nome_19"/></defs><path class="cls-1" d="M31.92,23.36l-16,0v7.05l16,0Zm-1.47,5.58H17.37V24.8H30.46Zm1.48-16.51-16,0V6.56a4.18,4.18,0,0,1,4.18-4.17h0A4.19,4.19,0,0,1,24.3,6.58v.77H22.84V6.57a2.72,2.72,0,0,0-2.72-2.72h0A2.71,2.71,0,0,0,17.4,6.57V11H30.47V6.5a6.45,6.45,0,0,1,12.9,0V7.3H41.92V6.52a5,5,0,0,0-5-5h0a5,5,0,0,0-5,5Zm0,1.89-16,0v7.13l16,0ZM30.46,20,17.38,20V15.76l13.08,0ZM47.87,45v.15l-1.46,0V45a2.56,2.56,0,0,0-2.57-2.47h0a2.58,2.58,0,0,0-2.58,2.57,4,4,0,0,1-4,4h0a4,4,0,0,1-4-4,2.59,2.59,0,0,0-2.58-2.58h0a2.58,2.58,0,0,0-2.57,2.57,4,4,0,0,1-4,4h0a4,4,0,0,1-4-4,2.57,2.57,0,0,0-2.57-2.57h0a2.58,2.58,0,0,0-2.57,2.57,4,4,0,0,1-4,4h0a4.05,4.05,0,0,1-4-4,2.58,2.58,0,0,0-2.57-2.58h0a2.58,2.58,0,0,0-2.58,2.57v.25h0a4.57,4.57,0,0,1-.12.74L.08,45.69a2.65,2.65,0,0,0,.07-.63,4.05,4.05,0,0,1,4-4h0A4,4,0,0,1,7,42.22a4,4,0,0,1,1.18,2.85,2.58,2.58,0,0,0,2.57,2.58h0a2.58,2.58,0,0,0,2.57-2.57,4,4,0,0,1,4-4h0a4,4,0,0,1,4,4A2.56,2.56,0,0,0,24,47.66h0a2.58,2.58,0,0,0,2.58-2.57,4,4,0,0,1,4-4h0a4.05,4.05,0,0,1,4,4,2.57,2.57,0,0,0,2.57,2.58h0a2.56,2.56,0,0,0,2.57-2.57,4.05,4.05,0,0,1,4-4h0A4,4,0,0,1,47.87,45ZM1.49,38.47.08,38.11a2.65,2.65,0,0,0,.07-.63,4.05,4.05,0,0,1,4-4h0A4,4,0,0,1,7,34.64a4,4,0,0,1,1.18,2.85,2.58,2.58,0,0,0,2.57,2.58h0a2.56,2.56,0,0,0,2.57-2.57,4,4,0,0,1,4-4h0a4,4,0,0,1,4,4A2.56,2.56,0,0,0,24,40.08h0a2.58,2.58,0,0,0,2.58-2.57,4,4,0,0,1,4-4h0a4.05,4.05,0,0,1,4,4,2.57,2.57,0,0,0,2.57,2.58h0a2.56,2.56,0,0,0,2.57-2.57,4.05,4.05,0,0,1,4-4h0a4,4,0,0,1,4,3.88v.15l-1.46,0v-.12A2.56,2.56,0,0,0,43.84,35h0a2.58,2.58,0,0,0-2.58,2.57,4,4,0,0,1-4,4h0a4,4,0,0,1-4-4,2.59,2.59,0,0,0-2.58-2.58h0a2.58,2.58,0,0,0-2.57,2.58,4,4,0,0,1-4,4h0a4,4,0,0,1-4-4,2.58,2.58,0,0,0-2.57-2.58h0a2.58,2.58,0,0,0-2.58,2.57,4,4,0,0,1-4,4h0a4,4,0,0,1-4-4,2.58,2.58,0,0,0-2.57-2.58h0a2.58,2.58,0,0,0-2.58,2.57v.25h0A4.57,4.57,0,0,1,1.49,38.47Z"/></svg>