<svg id="Layer_1" data-name="Layer 1" xmlns="http://www.w3.org/2000/svg" xmlns:xlink="http://www.w3.org/1999/xlink" viewBox="0 0 44.43 44.43"><defs><style>.cls-1{stroke-miterlimit:10;stroke-width:0.13px;fill:url(#Sfumatura_senza_nome_19);stroke:url(#Sfumatura_senza_nome_19-2);}</style><linearGradient id="Sfumatura_senza_nome_19" x1="0.06" y1="22.22" x2="44.37" y2="22.22" gradientUnits="userSpaceOnUse"><stop offset="0" stop-color="#87cdd7"/><stop offset="1" stop-color="#1d71b8"/></linearGradient><linearGradient id="Sfumatura_senza_nome_19-2" x1="0" y1="22.22" x2="44.43" y2="22.22" xlink:href="#Sfumatura_senza_nome_19"/></defs><path class="cls-1" d="M40.43,4a.72.72,0,0,1,.21.64,47,47,0,0,1-2.83,9.73.74.74,0,0,1-1.36-.58A44.51,44.51,0,0,0,39,5.47,43.15,43.15,0,0,0,30.73,7.9a.74.74,0,1,1-.58-1.36A45,45,0,0,1,39.8,3.83.71.71,0,0,1,40.43,4ZM5.27,30.65ZM43.72,40.3,40.3,43.72a2.22,2.22,0,0,1-3.13,0l-4.06-4.06a4.41,4.41,0,0,1-.34-5.84L31,32.08C22.29,40.55,10.5,43.37,4.2,44.29a3.48,3.48,0,0,1-4-4.16c1-6.31,3.92-18,12.2-26.73l-1.74-1.74a4.38,4.38,0,0,1-5.84-.34L.71,7.26a2.22,2.22,0,0,1,0-3.13L4.13.71a2.22,2.22,0,0,1,3.13,0l4.06,4.06a4.41,4.41,0,0,1,.34,5.84l1.73,1.74C22.14,3.88,33.93,1.06,40.24.14a3.48,3.48,0,0,1,4,4.16c-1,6.31-3.92,18-12.2,26.73l1.74,1.74a4.41,4.41,0,0,1,5.84.34l4.06,4.06A2.22,2.22,0,0,1,43.72,40.3ZM10.28,5.81,6.22,1.75a.74.74,0,0,0-1,0L1.75,5.17a.74.74,0,0,0,0,1l4.06,4.06h0a3,3,0,0,0,3.76.33L6.83,7.87a.74.74,0,1,1,1-1l2.74,2.74A3,3,0,0,0,10.28,5.81ZM4.9,28.16,10,33.39,12.37,31a5.14,5.14,0,0,1-.67-1.19c-1.75-4.17,1-9.65,4.05-13L13.4,14.44A42.33,42.33,0,0,0,4.9,28.16ZM16.79,17.84c-.35.38-.69.76-1,1.16l9.65,9.65c.4-.32.79-.65,1.16-1Zm10.85,8.75c4.13-4.49,5.45-10,2.89-12.69A4.9,4.9,0,0,0,27,12.54c-3.3,0-6.72,2-9.12,4.25ZM14.93,20.22a15,15,0,0,0-1.81,3.66l7.48,7.47a15.5,15.5,0,0,0,3.64-1.82Zm-2.22,5.33c-.69,4.27,1.8,7,6.22,6.22Zm-2.28,16L3,33.86a60.2,60.2,0,0,0-1.41,6.5A2,2,0,0,0,4,42.83,56.31,56.31,0,0,0,10.43,41.5Zm4.13-1.26C0,25.26,5.18,30.57,5.27,30.65l-.95-1c-.31.87-.58,1.71-.83,2.55L12,41.05h0C12.87,40.81,13.71,40.54,14.56,40.24ZM30,31l-2.35-2.35c-3.13,2.94-6.86,4.68-10.1,4.68a6.57,6.57,0,0,1-4.15-1.32L11,34.45l5.07,5.23h0A41.32,41.32,0,0,0,30,31Zm12.82-27A2,2,0,0,0,40.45,1.6c-6.13.89-17.57,3.62-26,11.79l2.35,2.35c3.13-2.94,6.86-4.68,10.1-4.68a6.39,6.39,0,0,1,4.71,1.81c3.11,3.2,1.77,9.69-2.91,14.77L31,30C39,21.58,41.85,10.2,42.82,4.07Zm-.14,34.14-4.06-4.06a2.94,2.94,0,0,0-3.76-.33l3.29,3.29a.74.74,0,0,1,.2.72.72.72,0,0,1-.52.52.74.74,0,0,1-.72-.2l-3.3-3.29a3,3,0,0,0,.34,3.76l4.06,4.06a.73.73,0,0,0,1,0l3.43-3.42h0A.74.74,0,0,0,42.68,38.21Z"/></svg>