<svg id="Layer_1" data-name="Layer 1" xmlns="http://www.w3.org/2000/svg" xmlns:xlink="http://www.w3.org/1999/xlink" viewBox="0 0 48.67 48.14"><defs><style>.cls-1{stroke-miterlimit:10;stroke-width:0.13px;fill:url(#Sfumatura_senza_nome_19);stroke:url(#Sfumatura_senza_nome_19-2);}</style><linearGradient id="Sfumatura_senza_nome_19" x1="0.06" y1="24.07" x2="48.61" y2="24.07" gradientUnits="userSpaceOnUse"><stop offset="0" stop-color="#87cdd7"/><stop offset="1" stop-color="#1d71b8"/></linearGradient><linearGradient id="Sfumatura_senza_nome_19-2" x1="0" y1="24.07" x2="48.67" y2="24.07" xlink:href="#Sfumatura_senza_nome_19"/></defs><path class="cls-1" d="M24.49,19.05A4.12,4.12,0,0,0,28.62,19a.72.72,0,0,1,1,.23.71.71,0,0,1-.23,1,6,6,0,0,1-3,.81,5,5,0,0,1-2.67-.76c-2-1.21-3.26-.35-3.61-.06a.71.71,0,0,1-1-.09.7.7,0,0,1,.09-1A4.39,4.39,0,0,1,24.49,19.05ZM23.23,5.75a.72.72,0,0,0,.7.72h0a.7.7,0,0,0,.71-.7c0-.15,0-.19.19-.37a1.85,1.85,0,0,0,0-2.59c-.15-.18-.18-.22-.18-.37s0-.19.19-.37A1.81,1.81,0,0,0,25.44.78a.72.72,0,0,0-.7-.72h0a.7.7,0,0,0-.71.7c0,.15,0,.19-.2.37a1.85,1.85,0,0,0-.54,1.29,1.82,1.82,0,0,0,.51,1.3c.15.18.18.22.18.37s0,.19-.19.37A1.81,1.81,0,0,0,23.23,5.75ZM35.77,7.82a.71.71,0,1,0,1.42,0c0-.15,0-.19.18-.37a1.86,1.86,0,0,0,.53-1.3,1.83,1.83,0,0,0-.53-1.29c-.15-.18-.18-.22-.18-.37s0-.19.18-.37a1.86,1.86,0,0,0,.53-1.3.71.71,0,0,0-1.42,0c0,.15,0,.19-.19.37a1.86,1.86,0,0,0-.52,1.3,1.81,1.81,0,0,0,.52,1.29c.16.19.19.23.19.37s0,.19-.19.37A1.86,1.86,0,0,0,35.77,7.82Zm-25,0a.71.71,0,0,0,1.42,0c0-.15,0-.19.18-.37a1.86,1.86,0,0,0,.53-1.3,1.83,1.83,0,0,0-.53-1.29c-.15-.18-.18-.22-.18-.37s0-.19.18-.37a1.86,1.86,0,0,0,.53-1.3.71.71,0,1,0-1.42,0c0,.15,0,.19-.19.37a1.86,1.86,0,0,0-.52,1.3,1.81,1.81,0,0,0,.52,1.29c.16.19.19.23.19.37s0,.19-.19.37A1.86,1.86,0,0,0,10.77,7.82ZM48.61,37.54v3s0,.06,0,.09c-.09,1.69-1.2,3.15-3.22,4.22a21.51,21.51,0,0,1-5.3,1.8,75.41,75.41,0,0,1-15.75,1.48A75.38,75.38,0,0,1,8.59,46.6a21.6,21.6,0,0,1-5.31-1.8c-2-1.07-3.12-2.53-3.21-4.22a.28.28,0,0,1,0-.09v-3a.47.47,0,0,1,0-.17A4.77,4.77,0,0,1,2.26,34V24.33A4.55,4.55,0,0,1,.31,20.94a.34.34,0,0,1,0-.1V17.93a.88.88,0,0,1,0-.17c.15-1.6,1.24-3,3.17-4A21.21,21.21,0,0,1,8.75,12a74.62,74.62,0,0,1,15.58-1.46A74.65,74.65,0,0,1,39.92,12a21.35,21.35,0,0,1,5.26,1.78c1.93,1,3,2.4,3.17,4a1,1,0,0,1,0,.17v2.91a.34.34,0,0,1,0,.1,4.55,4.55,0,0,1-2,3.39V34a4.8,4.8,0,0,1,2.17,3.39A.47.47,0,0,1,48.61,37.54ZM1.72,18.16A2.72,2.72,0,0,0,2,19.33a5.06,5.06,0,0,0,2.16,2,20.31,20.31,0,0,0,4.9,1.64c1.47.33,3.11.61,4.88.83a86.07,86.07,0,0,0,10.39.6,85.82,85.82,0,0,0,10.39-.6c1.77-.22,3.42-.5,4.89-.83a20.73,20.73,0,0,0,4.67-1.53l.23-.11A4.59,4.59,0,0,0,46.82,19a2.63,2.63,0,0,0,.13-.8.41.41,0,0,0,0-.11V18c-.1-1.43-1.36-2.4-2.43-3a20.31,20.31,0,0,0-4.9-1.64,73.1,73.1,0,0,0-15.28-1.43A73,73,0,0,0,9.06,13.37,20.31,20.31,0,0,0,4.16,15c-1.07.57-2.33,1.54-2.43,3a.17.17,0,0,1,0,.07Zm2.44,5.7a19.84,19.84,0,0,0,4.9,1.65c1.41.32,3,.59,4.66.8h0c.83.11,1.69.2,2.58.28h0l2,.16h.06l.66,0h0c1.71.1,3.48.15,5.29.15h2.05l1.26,0h.09l.54,0h.11l.57,0H29l.64,0h0c1.85-.11,3.63-.27,5.3-.48h0c1.68-.21,3.25-.48,4.66-.8a19.84,19.84,0,0,0,4.9-1.65,4.38,4.38,0,0,0,2.35-2.48h0l-.16.14,0,0a.69.69,0,0,1-.13.11l-.06,0-.12.1-.06,0-.16.12,0,0-.2.13,0,0-.15.09-.08,0-.15.09-.06,0-.22.12h0a12.73,12.73,0,0,1-1.56.7,26.94,26.94,0,0,1-3.7,1.08c-1.57.35-3.33.65-5.23.88a88.07,88.07,0,0,1-10.36.58A87.9,87.9,0,0,1,14,25.21c-1.9-.23-3.66-.53-5.23-.88a22.55,22.55,0,0,1-5-1.65l-.25-.13-.22-.12-.07,0-.15-.09-.07,0-.15-.09-.06,0L2.58,22l0,0-.16-.12-.06,0-.12-.1-.06,0L2,21.56l0,0-.16-.14h0A4.38,4.38,0,0,0,4.16,23.86ZM41.07,37.93v1.79c3-.89,3.92-1.8,3.92-2.25V25.22a20.16,20.16,0,0,1-3.92,1.4v8a.71.71,0,0,1-1.42,0V27c-1.21.26-2.52.49-3.92.68V40.82c1.27-.19,2.46-.4,3.56-.65l.36-.08V37.93a.71.71,0,0,1,1.42,0ZM30.39,28.17v13.2c1.36-.09,2.67-.21,3.92-.36V27.82C33.05,28,31.74,28.08,30.39,28.17Zm-1.52.08-.83,0h-.12c-.3,0-.59,0-.9,0h0l-.93,0h-1v13.2h1c1,0,2,0,2.9-.1V28.25Zm-9.17,0v13.2c1.28.06,2.59.1,3.92.11V28.36C22.29,28.35,21,28.31,19.7,28.25ZM18,28.15h-.16l-.34,0h-.16l-.35,0h-.16l-.33,0-.17,0L16,28h-.16l-.33,0-.16,0-.33,0-.16,0-.33,0h-.21V41c1.25.15,2.57.27,3.92.37V28.17ZM9,32.22v7.87l.36.08c1.1.25,2.29.46,3.56.65V27.64c-1.4-.19-2.71-.42-3.92-.68V28.9a.71.71,0,1,1-1.42,0V26.62a20.16,20.16,0,0,1-3.92-1.4V37.47c0,.45.87,1.36,3.92,2.25v-7.5a.71.71,0,0,1,1.42,0ZM47.1,41a7.67,7.67,0,0,1-1.72,1.2,21.94,21.94,0,0,1-5.3,1.8,75.47,75.47,0,0,1-15.75,1.47A75.44,75.44,0,0,1,8.59,44a22,22,0,0,1-5.31-1.8A7.84,7.84,0,0,1,1.57,41,4.41,4.41,0,0,0,4,43.55a20.56,20.56,0,0,0,5,1.66,73.82,73.82,0,0,0,15.43,1.44,73.85,73.85,0,0,0,15.44-1.44,20.72,20.72,0,0,0,4.95-1.66A4.45,4.45,0,0,0,47.1,41Zm.08-3.24v-.18h0a3,3,0,0,0-.77-1.71v1.6c0,1.7-2.29,3.07-6.81,4.09A68.87,68.87,0,0,1,26.39,43H24.33A73,73,0,0,1,9.07,41.56c-4.52-1-6.81-2.39-6.81-4.09v-1.6a2.89,2.89,0,0,0-.77,1.71h0v0c0,.06,0,.11,0,.17C1.48,39.32,2.83,40.36,4,41a20.09,20.09,0,0,0,5,1.67,73.82,73.82,0,0,0,15.43,1.44,73.85,73.85,0,0,0,15.44-1.44A20.24,20.24,0,0,0,44.72,41C45.84,40.36,47.18,39.32,47.18,37.77ZM2.26,18.14h0c0-1.7,2.29-3.07,6.81-4.09a73.64,73.64,0,0,1,15.26-1.42A73.67,73.67,0,0,1,39.6,14.05c4.52,1,6.81,2.4,6.81,4.09h0a2.59,2.59,0,0,1-1.34,2.06l-.1.07a16.68,16.68,0,0,1-5.37,2,72.93,72.93,0,0,1-15.27,1.43A72.9,72.9,0,0,1,9.07,22.23a16.78,16.78,0,0,1-5.36-1.95L3.6,20.2A2.59,2.59,0,0,1,2.26,18.14Zm40.89,1.51C39.71,18.06,32.33,17,24.33,17S9,18.06,5.52,19.65a20.76,20.76,0,0,0,3.86,1.19,71.34,71.34,0,0,0,14.95,1.39,71.37,71.37,0,0,0,15-1.39A20.76,20.76,0,0,0,43.15,19.65ZM3.68,18.14a1,1,0,0,0,.41.65c3.32-1.94,11.3-3.22,20.24-3.22s16.93,1.28,20.25,3.22a1,1,0,0,0,.41-.65c0-.53-1.2-1.69-5.7-2.7a72.05,72.05,0,0,0-15-1.39A72,72,0,0,0,9.38,15.44C4.88,16.45,3.68,17.62,3.68,18.14Z"/></svg>