<svg id="Layer_1" data-name="Layer 1" xmlns="http://www.w3.org/2000/svg" xmlns:xlink="http://www.w3.org/1999/xlink" viewBox="0 0 57.61 35.83"><defs><style>.cls-1,.cls-2,.cls-3,.cls-4,.cls-5{stroke-miterlimit:10;stroke-width:0.13px;}.cls-1{fill:url(#Sfumatura_senza_nome_19);stroke:url(#Sfumatura_senza_nome_19-2);}.cls-2{fill:url(#Sfumatura_senza_nome_19-3);stroke:url(#Sfumatura_senza_nome_19-4);}.cls-3{fill:url(#Sfumatura_senza_nome_19-5);stroke:url(#Sfumatura_senza_nome_19-6);}.cls-4{fill:url(#Sfumatura_senza_nome_19-7);stroke:url(#Sfumatura_senza_nome_19-8);}.cls-5{fill:url(#Sfumatura_senza_nome_19-9);stroke:url(#Sfumatura_senza_nome_19-10);}</style><linearGradient id="Sfumatura_senza_nome_19" x1="21.51" y1="14.37" x2="36.1" y2="14.37" gradientUnits="userSpaceOnUse"><stop offset="0" stop-color="#87cdd7"/><stop offset="1" stop-color="#1d71b8"/></linearGradient><linearGradient id="Sfumatura_senza_nome_19-2" x1="21.45" y1="14.37" x2="36.16" y2="14.37" xlink:href="#Sfumatura_senza_nome_19"/><linearGradient id="Sfumatura_senza_nome_19-3" x1="12.9" y1="11.41" x2="44.71" y2="11.41" xlink:href="#Sfumatura_senza_nome_19"/><linearGradient id="Sfumatura_senza_nome_19-4" x1="12.84" y1="11.41" x2="44.78" y2="11.41" xlink:href="#Sfumatura_senza_nome_19"/><linearGradient id="Sfumatura_senza_nome_19-5" x1="0.06" y1="17.91" x2="57.55" y2="17.91" xlink:href="#Sfumatura_senza_nome_19"/><linearGradient id="Sfumatura_senza_nome_19-6" x1="0" y1="17.91" x2="57.61" y2="17.91" xlink:href="#Sfumatura_senza_nome_19"/><linearGradient id="Sfumatura_senza_nome_19-7" x1="30.04" y1="22.73" x2="54.61" y2="22.73" xlink:href="#Sfumatura_senza_nome_19"/><linearGradient id="Sfumatura_senza_nome_19-8" x1="29.98" y1="22.73" x2="54.67" y2="22.73" xlink:href="#Sfumatura_senza_nome_19"/><linearGradient id="Sfumatura_senza_nome_19-9" x1="2.97" y1="22.72" x2="27.18" y2="22.72" xlink:href="#Sfumatura_senza_nome_19"/><linearGradient id="Sfumatura_senza_nome_19-10" x1="2.91" y1="22.72" x2="27.24" y2="22.72" xlink:href="#Sfumatura_senza_nome_19"/></defs><path class="cls-1" d="M28.81,11.55c-3.52,0-7.3.88-7.3,2.82s3.78,2.82,7.3,2.82,7.29-.89,7.29-2.82S32.32,11.55,28.81,11.55Zm0,4.39c-4,0-6-1.1-6-1.57s2.06-1.57,6-1.57,6,1.1,6,1.57S32.79,15.94,28.81,15.94Z"/><path class="cls-2" d="M44.71,11.41c0-4.28-7-7.63-15.9-7.63S12.9,7.13,12.9,11.41,19.89,19,28.81,19,44.71,15.69,44.71,11.41Zm-15.9,6.38c-7.95,0-14.66-2.92-14.66-6.38S20.86,5,28.81,5,43.46,8,43.46,11.41,36.75,17.79,28.81,17.79Z"/><path class="cls-3" d="M56.73,6.82c-1.42-1.33-3.64,0-5.08,1.15C46.54,3,38.05.06,28.81.06S11.08,3,6,8C4.52,6.82,2.3,5.49.89,6.82s-.95,4.69,1,7.45a12,12,0,0,0-.57,3.64c0,4.82,2.9,9.34,8.15,12.71s12,5.14,19.33,5.14S43,33.94,48.13,30.62s8.15-7.89,8.15-12.71a12,12,0,0,0-.57-3.64C57.67,11.51,58.15,8.15,56.73,6.82ZM28.81,34.51c-14.47,0-26.23-7.44-26.23-16.6a10.83,10.83,0,0,1,.6-3.54l.11-.31-.2-.27C1.3,11.41.88,8.53,1.74,7.73a.87.87,0,0,1,.61-.21,4.08,4.08,0,0,1,2,.84,2.15,2.15,0,0,0-2-.35c-.53.29-.73.92-.59,1.86A6.56,6.56,0,0,0,3,12.5l.57.84L4,12.45a15.41,15.41,0,0,1,1.63-2.34L6,9.68H6l.41-.43a24.88,24.88,0,0,1,9.34-5.74,38.38,38.38,0,0,1,13-2.2,38.33,38.33,0,0,1,13,2.2,24.88,24.88,0,0,1,9.34,5.74l.41.43h0l.38.43a15.33,15.33,0,0,1,1.62,2.34l.49.89.57-.84a6.75,6.75,0,0,0,1.23-2.63c.13-.94-.07-1.57-.6-1.86a2.13,2.13,0,0,0-2,.35c1.21-.82,2.18-1.06,2.64-.63a2.72,2.72,0,0,1,.34,2.32,9,9,0,0,1-1.69,3.74l-.2.27.11.31a10.83,10.83,0,0,1,.6,3.54C55,27.07,43.27,34.51,28.81,34.51ZM4.31,9.81A12.72,12.72,0,0,0,3.49,11,4,4,0,0,1,3,9.69a2.21,2.21,0,0,1,0-.58A3.46,3.46,0,0,1,4.31,9.81Zm49,0a3.45,3.45,0,0,1,1.32-.7,1.54,1.54,0,0,1,0,.58A4.15,4.15,0,0,1,54.13,11C53.87,10.57,53.6,10.18,53.31,9.81Z"/><path class="cls-4" d="M54.05,16.14a.63.63,0,0,0-.69.55c-.33,2.86-2.77,5.59-6.88,7.7a38.91,38.91,0,0,1-15.84,3.68.64.64,0,0,0-.6.65.63.63,0,0,0,.63.6h0A40.11,40.11,0,0,0,47.05,25.5c4.49-2.3,7.17-5.38,7.55-8.66A.62.62,0,0,0,54.05,16.14Z"/><path class="cls-5" d="M26.58,28.06C14.52,27.53,4.9,22.64,4.21,16.69A.62.62,0,1,0,3,16.84c.38,3.25,3,6.31,7.44,8.6a39.85,39.85,0,0,0,16.12,3.87h0a.63.63,0,0,0,0-1.25Z"/></svg>