<svg id="Layer_1" data-name="Layer 1" xmlns="http://www.w3.org/2000/svg" xmlns:xlink="http://www.w3.org/1999/xlink" viewBox="0 0 40.7 45.01"><defs><style>.cls-1{stroke-miterlimit:10;stroke-width:0.13px;fill:url(#Sfumatura_senza_nome_19);stroke:url(#Sfumatura_senza_nome_19-2);}</style><linearGradient id="Sfumatura_senza_nome_19" x1="0.06" y1="22.51" x2="40.64" y2="22.51" gradientUnits="userSpaceOnUse"><stop offset="0" stop-color="#87cdd7"/><stop offset="1" stop-color="#1d71b8"/></linearGradient><linearGradient id="Sfumatura_senza_nome_19-2" x1="0" y1="22.51" x2="40.7" y2="22.51" xlink:href="#Sfumatura_senza_nome_19"/></defs><path class="cls-1" d="M40.64,11.6a1.44,1.44,0,0,0-.85-1.42C34.34,7.29,27.89,3.86,21.33.34a1.75,1.75,0,0,0-1.89,0C13.93,3.28,8.05,6.39,1,10.14a1.4,1.4,0,0,0-.83,1.39V22H.07v3c0,2.64,0,5.38,0,8.07a1.39,1.39,0,0,0,.8,1.36c5.79,3.15,12,6.54,19,10.38a1.42,1.42,0,0,0,.7.2,1.36,1.36,0,0,0,.7-.2C27.65,41.11,33.93,37.54,40,34.11a1.23,1.23,0,0,0,.69-1.18C40.63,26.62,40.62,19.16,40.64,11.6ZM27.34,5.52c.57.33,1.16.63,1.8,1l-.36.23L11.27,16.17a1,1,0,0,0-.58,1c0,1.38,0,2.75,0,4.13v.53c-.79-.44-1.5-.82-2.2-1.23a.49.49,0,0,1-.17-.35c0-1.58,0-3.15,0-4.73,0-.25.14-.33.32-.43l12.89-6.8,5.19-2.74A.56.56,0,0,1,27.34,5.52ZM5,10q7.5-4,15-8a.73.73,0,0,1,.79,0c1.4.77,2.8,1.5,4.2,2.25l.42.24c-.15.09-.24.16-.34.21Q16.48,9.27,7.9,13.78a.6.6,0,0,1-.47.05C5.88,13,4.34,12.11,2.7,11.2Zm14.86,32.2v.51a2.06,2.06,0,0,1-.31-.13L2.25,33.13a.71.71,0,0,1-.44-.73q0-9.75.06-19.5c0-.12,0-.23,0-.41l.37.17c1.42.8,2.83,1.6,4.26,2.39a.55.55,0,0,1,.32.56c0,1.68,0,3.37,0,5.05a1,1,0,0,0,.61,1.05c1.17.62,2.32,1.27,3.48,1.91.72.4,1.27.08,1.27-.74V18.22l.44.24c2.28,1.3,4.55,2.61,6.83,3.9a.67.67,0,0,1,.4.68Q19.84,32.61,19.84,42.18Zm1.08-21.06a.49.49,0,0,1-.58.05L13.25,17.1,13,17l.32-.2L30.41,7.53a.64.64,0,0,1,.69,0c2.2,1.19,4.41,2.36,6.62,3.54.1,0,.19.12.33.21l-.39.24ZM38.49,32.94l-16.8,9.57-.33.17a2.73,2.73,0,0,1,0-.37c0-6.46,0-12.92,0-19.38a.54.54,0,0,1,.31-.52l16.85-9.64.4-.21v.49q0,9.61,0,19.22A.66.66,0,0,1,38.49,32.94Z"/></svg>