<?xml version="1.0" encoding="UTF-8" standalone="no"?>
<svg
   xmlns:dc="http://purl.org/dc/elements/1.1/"
   xmlns:cc="http://creativecommons.org/ns#"
   xmlns:rdf="http://www.w3.org/1999/02/22-rdf-syntax-ns#"
   xmlns:svg="http://www.w3.org/2000/svg"
   xmlns="http://www.w3.org/2000/svg"
   xmlns:sodipodi="http://sodipodi.sourceforge.net/DTD/sodipodi-0.dtd"
   xmlns:inkscape="http://www.inkscape.org/namespaces/inkscape"
   width="59.003"
   height="50"
   viewBox="0 0 59.003 50"
   version="1.1"
   id="svg916"
   sodipodi:docname="delivery.svg"
   inkscape:version="1.0.2 (e86c870879, 2021-01-15, custom)">
  <metadata
     id="metadata922">
    <rdf:RDF>
      <cc:Work
         rdf:about="">
        <dc:format>image/svg+xml</dc:format>
        <dc:type
           rdf:resource="http://purl.org/dc/dcmitype/StillImage" />
      </cc:Work>
    </rdf:RDF>
  </metadata>
  <defs
     id="defs920" />
  <sodipodi:namedview
     pagecolor="#ffffff"
     bordercolor="#666666"
     borderopacity="1"
     objecttolerance="10"
     gridtolerance="10"
     guidetolerance="10"
     inkscape:pageopacity="0"
     inkscape:pageshadow="2"
     inkscape:window-width="1886"
     inkscape:window-height="1368"
     id="namedview918"
     showgrid="false"
     inkscape:zoom="17.660119"
     inkscape:cx="28.255754"
     inkscape:cy="25"
     inkscape:window-x="1073"
     inkscape:window-y="372"
     inkscape:window-maximized="0"
     inkscape:current-layer="Group_974" />
  <g
     id="delivery_1_"
     data-name="delivery (1)"
     transform="translate(0 -36.011)">
    <g
       id="Group_975"
       data-name="Group 975"
       transform="translate(0 36.011)">
      <g
         id="Group_974"
         data-name="Group 974"
         transform="translate(0 0)">
        <path
           id="Path_459"
           data-name="Path 459"
           d="M98.224,75.01H96.285l.93-6.866v-.006l.142-1.128a7.113,7.113,0,0,0-7.058-8H88l-.811-3.243a1,1,0,0,0-.97-.757H82.129l1.085-7.863a1,1,0,0,0-.854-1.128.989.989,0,0,0-.137-.009H63.913a9,9,0,1,0-11.611,7.6l-2.953,21.4H47.221a1,1,0,0,0-1,1v5a1,1,0,0,0,1,1h8a4,4,0,0,0,8,0h19a4,4,0,0,0,8,0h8a1,1,0,0,0,1-1v-5A1,1,0,0,0,98.224,75.01Zm-10.118-14H90.3a5.114,5.114,0,0,1,3.833,1.729h0a5.118,5.118,0,0,1,1.241,4.019l-.032.252H87.356Zm-6.253-4h3.589l.5,2H81.577Zm4.233,4-.859,6.876A1,1,0,0,0,86.1,69a1.017,1.017,0,0,0,.128.008h8.856l-.812,6h-14.9l.827-6,1.1-8Zm-38.115-16a7,7,0,1,1,7,7A7.008,7.008,0,0,1,47.971,45.009Zm6.3,8.965c.232.018.464.036.7.036a9.009,9.009,0,0,0,8.475-6H81.076L78.268,68.365l-.917,6.645H51.368Zm4.953,30.038a2,2,0,0,1-2-2h4A2,2,0,0,1,59.222,84.011Zm27,0a2,2,0,0,1-2-2h4A2,2,0,0,1,86.223,84.011Zm11-4h-49v-3h49Z"
           transform="translate(-40.221 -36.011)"
           fill="#8f8780"
           style="fill:#7cc6d1;fill-opacity:1" />
        <rect
           id="Rectangle_1252"
           data-name="Rectangle 1252"
           width="6"
           height="2"
           transform="translate(4 20.998)"
           fill="#8f8780"
           style="fill:#7cc6d1;fill-opacity:1" />
        <rect
           id="Rectangle_1253"
           data-name="Rectangle 1253"
           width="6"
           height="2"
           transform="translate(0 32.999)"
           fill="#8f8780"
           style="fill:#7cc6d1;fill-opacity:1" />
        <rect
           id="Rectangle_1254"
           data-name="Rectangle 1254"
           width="6"
           height="2"
           transform="translate(2 26.999)"
           fill="#8f8780"
           style="fill:#7cc6d1;fill-opacity:1" />
        <path
           id="Path_460"
           data-name="Path 460"
           d="M116.555,74.156,114,72.453V67.988h-2v5a1,1,0,0,0,.445.832l3,2Z"
           transform="translate(-97.999 -63.991)"
           fill="#8f8780"
           style="fill:#7cc6d1;fill-opacity:1" />
        <rect
           id="Rectangle_1255"
           data-name="Rectangle 1255"
           width="8"
           height="2"
           transform="translate(44.003 34.999)"
           fill="#8f8780"
           style="fill:#7cc6d1;fill-opacity:1" />
        <rect
           id="Rectangle_1256"
           data-name="Rectangle 1256"
           width="8"
           height="2"
           transform="translate(25.001 34.999)"
           fill="#8f8780"
           style="fill:#7cc6d1;fill-opacity:1" />
        <rect
           id="Rectangle_1257"
           data-name="Rectangle 1257"
           width="2"
           height="2"
           transform="translate(21.001 34.999)"
           fill="#8f8780"
           style="fill:#7cc6d1;fill-opacity:1" />
        <rect
           id="Rectangle_1258"
           data-name="Rectangle 1258"
           width="2"
           height="2"
           transform="translate(17.001 34.999)"
           fill="#8f8780"
           style="fill:#7cc6d1;fill-opacity:1" />
      </g>
    </g>
  </g>
</svg>
