<svg xmlns="http://www.w3.org/2000/svg" width="48" height="48" viewBox="0 0 48 48">
  <g id="cancel" transform="translate(-209.788 -203.365)">
    <g id="Group_1228" data-name="Group 1228" transform="translate(209.788 203.365)">
      <path id="Path_593" data-name="Path 593" d="M238.843,203.9c-.128.037-3.47-.519-3.177-.464q-.93-.072-1.878-.073a24,24,0,0,0-23.678,27.922,8.4,8.4,0,0,0,.75,3.178A24,24,0,1,0,238.843,203.9Zm-5.055,44.285a20.823,20.823,0,1,1,20.823-20.823A20.847,20.847,0,0,1,233.788,248.188Z" transform="translate(-209.788 -203.365)" fill="#7cc6d1"/>
      <path id="Path_594" data-name="Path 594" d="M294.864,267.125h-6.107l2.85-2.806a1.56,1.56,0,0,0,0-2.229,1.616,1.616,0,0,0-2.261,0l-5.583,5.5a1.576,1.576,0,0,0,0,2.23l5.583,5.5a1.615,1.615,0,0,0,2.261,0,1.56,1.56,0,0,0,0-2.229l-2.85-2.807h6.108a6.916,6.916,0,1,1,0,13.831H280.439a1.576,1.576,0,1,0,0,3.152h14.425a10.068,10.068,0,1,0,0-20.134Z" transform="translate(-267.959 -252.285)" fill="#7cc6d1"/>
    </g>
  </g>
</svg>
