<svg id="caps-lock" xmlns="http://www.w3.org/2000/svg" width="48" height="48" viewBox="0 0 48 48">
  <path id="Path_587" data-name="Path 587" d="M40.971,7.029A24,24,0,0,0,7.029,40.971,24,24,0,0,0,40.971,7.029ZM24,45.188A21.188,21.188,0,1,1,45.187,24,21.211,21.211,0,0,1,24,45.188Z" fill="#7cc6d1"/>
  <path id="Path_588" data-name="Path 588" d="M242.406,271A1.406,1.406,0,0,0,241,272.406v2.813a1.406,1.406,0,1,0,2.813,0v-2.812A1.406,1.406,0,0,0,242.406,271Z" transform="translate(-218.406 -245.594)" fill="#7cc6d1"/>
  <path id="Path_589" data-name="Path 589" d="M161.156,111.312h-.469v-1.406a8.906,8.906,0,0,0-17.812,0v1.406h-.469A1.406,1.406,0,0,0,141,112.719v14.063a1.406,1.406,0,0,0,1.406,1.406h18.75a1.406,1.406,0,0,0,1.406-1.406V112.719A1.406,1.406,0,0,0,161.156,111.312Zm-15.469-1.406a6.094,6.094,0,1,1,12.187,0v1.406H145.688Zm14.062,15.469H143.813v-11.25H159.75Z" transform="translate(-127.781 -91.531)" fill="#7cc6d1"/>
</svg>
